<svg width="10" height="12" viewBox="0 0 10 12" fill="none" xmlns="http://www.w3.org/2000/svg">
<path id="Vector" d="M0.635 3.45944L5 5.98444L9.365 3.45944M5 11.0194V5.97944M9.5 7.97944V3.97944C9.49982 3.80408 9.45353 3.63185 9.36577 3.48002C9.27801 3.3282 9.15187 3.20212 9 3.11444L5.5 1.11444C5.34798 1.02667 5.17554 0.980469 5 0.980469C4.82446 0.980469 4.65202 1.02667 4.5 1.11444L1 3.11444C0.848131 3.20212 0.72199 3.3282 0.634231 3.48002C0.546471 3.63185 0.50018 3.80408 0.5 3.97944V7.97944C0.50018 8.15481 0.546471 8.32704 0.634231 8.47886C0.72199 8.63069 0.848131 8.75676 1 8.84444L4.5 10.8444C4.65202 10.9322 4.82446 10.9784 5 10.9784C5.17554 10.9784 5.34798 10.9322 5.5 10.8444L9 8.84444C9.15187 8.75676 9.27801 8.63069 9.36577 8.47886C9.45353 8.32704 9.49982 8.15481 9.5 7.97944Z" stroke="white" stroke-linecap="round" stroke-linejoin="bevel"/>
</svg>
