<svg width="151" height="56" viewBox="0 0 151 56" fill="none" xmlns="http://www.w3.org/2000/svg">
<path d="M76 22.2156H79.7254L89.0573 30.8054L87.7316 30.9371V22.2156H91.1533V33.8015H87.4465L78.2386 25.0954L79.4199 24.9636V33.8015H76V22.2156Z" fill="white"/>
<path d="M96.9821 22.2156H100.761V33.8015H96.9821V22.2156Z" fill="white"/>
<path d="M105.84 22.2156H109.941L113.739 31.6335H114.007L117.77 22.2156H121.836L116.481 33.8015H111.269L105.84 22.2156Z" fill="white"/>
<path d="M126.896 22.2156H130.675V33.8015H126.896V22.2156Z" fill="white"/>
<path d="M139.626 33.6116C138.574 33.3532 137.743 32.9254 137.128 32.3282C136.513 31.7328 136.11 30.9269 135.919 29.9122H139.878C139.974 30.3981 140.174 30.7848 140.477 31.0706C140.781 31.358 141.2 31.5668 141.731 31.7003C142.262 31.832 142.94 31.8988 143.764 31.8988C144.875 31.8988 145.714 31.7892 146.28 31.5685C146.847 31.3478 147.13 31.0227 147.13 30.5915C147.13 30.2937 146.964 30.0593 146.628 29.8882C146.293 29.7171 145.873 29.5871 145.366 29.4998C144.858 29.4108 144.145 29.3235 143.225 29.2346C141.792 29.0908 140.611 28.9197 139.679 28.7212C138.748 28.5227 137.945 28.1703 137.271 27.6621C136.597 27.1539 136.258 26.4369 136.258 25.5095C136.258 24.8028 136.482 24.1902 136.93 23.6718C137.378 23.1533 138.13 22.7443 139.187 22.4466C140.244 22.1489 141.65 22 143.405 22C144.969 22 146.267 22.1318 147.301 22.397C148.334 22.6622 149.139 23.09 149.719 23.6803C150.298 24.2706 150.646 25.0509 150.767 26.0228H146.952C146.856 25.5591 146.69 25.1946 146.451 24.9311C146.212 24.6659 145.847 24.4726 145.358 24.3511C144.869 24.2296 144.182 24.1697 143.299 24.1697C142.511 24.1697 141.885 24.2159 141.418 24.31C140.953 24.4041 140.622 24.5342 140.424 24.6984C140.228 24.8644 140.128 25.0629 140.128 25.2939C140.128 25.5916 140.292 25.8243 140.62 25.9886C140.948 26.1546 141.361 26.2761 141.855 26.3531C142.351 26.4301 143.059 26.519 143.977 26.6183C145.421 26.762 146.612 26.9331 147.551 27.1316C148.487 27.3301 149.297 27.6911 149.978 28.2165C150.659 28.7401 150.998 29.4827 150.998 30.4426C150.998 31.1596 150.774 31.7807 150.326 32.3043C149.878 32.8279 149.108 33.242 148.015 33.5448C146.923 33.8477 145.451 34 143.601 34C142.001 34 140.676 33.87 139.626 33.6116Z" fill="white"/>
<path d="M0 6C0 2.68629 2.68629 0 6 0H50C53.3137 0 56 2.68629 56 6V50C56 53.3137 53.3137 56 50 56H6C2.68629 56 0 53.3137 0 50V6Z" fill="#0D0B14"/>
<path d="M13 24.9784C13 24.9784 16.7962 28.6642 19.0308 30.8307V10C28.5659 20.0129 48 41 48 41H38.8462L25.3846 26.487V41H18.9231L13 34.5914V24.9784Z" fill="white"/>
</svg>
