<svg width="1481" height="257" viewBox="0 0 1481 257" fill="none" xmlns="http://www.w3.org/2000/svg">
<path d="M0 4.60363H73.5334L257.732 188.072L231.564 190.886V4.60363H299.104V252.066H225.936L44.1858 66.1129L67.503 63.2987V252.066H0V4.60363Z" fill="white"/>
<path d="M414.155 4.60363H488.749V252.066H414.155V4.60363Z" fill="white"/>
<path d="M588.999 4.60363H669.951L744.91 205.76H750.209L824.437 4.60363H904.695L799 252.066H696.119L588.999 4.60363Z" fill="white"/>
<path d="M1004.58 4.60363H1079.17V252.066H1004.58V4.60363Z" fill="white"/>
<path d="M1255.88 248.011C1235.12 242.492 1218.71 233.355 1206.58 220.6C1194.44 207.882 1186.48 190.668 1182.71 168.995H1260.85C1262.75 179.375 1266.7 187.634 1272.69 193.738C1278.68 199.878 1286.94 204.336 1297.43 207.187C1307.92 210.001 1321.3 211.427 1337.56 211.427C1359.49 211.427 1376.05 209.088 1387.23 204.373C1398.41 199.658 1404.01 192.714 1404.01 183.504C1404.01 177.145 1400.72 172.138 1394.1 168.483C1387.49 164.829 1379.19 162.051 1369.18 160.187C1359.16 158.287 1345.09 156.423 1326.93 154.522C1298.64 151.452 1275.32 147.798 1256.94 143.558C1238.56 139.319 1222.69 131.79 1209.39 120.935C1196.09 110.081 1189.4 94.7674 1189.4 74.9587C1189.4 59.8646 1193.82 46.7807 1202.67 35.7068C1211.51 24.6329 1226.35 15.8981 1247.22 9.53887C1268.09 3.17962 1295.82 0 1330.47 0C1361.35 0 1386.97 2.81415 1407.37 8.47899C1427.76 14.1438 1443.66 23.2807 1455.1 35.8895C1466.54 48.4984 1473.41 65.164 1475.78 85.9229H1400.5C1398.6 76.0186 1395.31 68.234 1390.59 62.6057C1385.88 56.9408 1378.68 52.811 1369.03 50.2161C1359.38 47.6213 1345.82 46.3421 1328.39 46.3421C1312.82 46.3421 1300.47 47.3289 1291.26 49.339C1282.08 51.3491 1275.54 54.1267 1271.63 57.6352C1267.76 61.1803 1265.78 65.4198 1265.78 70.3537C1265.78 76.713 1269.04 81.6834 1275.5 85.192C1281.97 88.7371 1290.12 91.3319 1299.88 92.9766C1309.68 94.6212 1323.64 96.5217 1341.77 98.6414C1370.27 101.711 1393.77 105.366 1412.3 109.606C1430.79 113.845 1446.77 121.557 1460.22 132.777C1473.66 143.96 1480.35 159.822 1480.35 180.325C1480.35 195.638 1475.93 208.905 1467.09 220.088C1458.24 231.272 1443.04 240.116 1421.47 246.585C1399.91 253.054 1370.86 256.307 1334.35 256.307C1302.77 256.307 1276.6 253.529 1255.88 248.011Z" fill="white"/>
</svg>